<svg xmlns="http://www.w3.org/2000/svg" xmlns:xlink="http://www.w3.org/1999/xlink" width="400" height="400" viewBox="0 0 400 400"><defs><clipPath id="b"><rect width="400" height="400"/></clipPath></defs><g id="a" clip-path="url(#b)"><g transform="translate(9.927 9.927)"><circle cx="190" cy="190" r="190" transform="translate(0.073 0.073)" fill="#fe524d"/></g><g transform="translate(17.347 130.424) rotate(-30)"><g transform="translate(138.233 0) rotate(30)"><path d="M116.323,276.466s-54.637-12.082-54.637-39.5V77.476C61.686,12.563,0,0,0,0" transform="translate(0 0)" fill="none" stroke="#fff" stroke-width="5" stroke-dasharray="10"/><g transform="translate(28.229 153.204)" fill="#fff" stroke="#fff" stroke-width="1"><ellipse cx="35.478" cy="8.748" rx="35.478" ry="8.748" stroke="none"/><ellipse cx="35.478" cy="8.748" rx="34.978" ry="8.248" fill="none"/></g><ellipse cx="35.478" cy="8.748" rx="35.478" ry="8.748" transform="translate(28.229 179.448)" fill="#ffd5d4"/><g transform="translate(28.229 125.988)" fill="#fff" stroke="#fff" stroke-width="1"><ellipse cx="35.478" cy="8.748" rx="35.478" ry="8.748" stroke="none"/><ellipse cx="35.478" cy="8.748" rx="34.978" ry="8.248" fill="none"/></g><ellipse cx="35.478" cy="8.748" rx="35.478" ry="8.748" transform="translate(28.229 98.772)" fill="#ffd5d4"/></g></g></g></svg>