<svg xmlns="http://www.w3.org/2000/svg" xmlns:xlink="http://www.w3.org/1999/xlink" width="852" height="100" viewBox="0 0 852 100">
  <defs>
    <clipPath id="clip-custom_2">
      <rect width="852" height="100"/>
    </clipPath>
  </defs>
  <g id="custom_2" data-name="custom – 2" clip-path="url(#clip-custom_2)">
    <g id="Group_1" data-name="Group 1" transform="translate(-21.822 -13.088)">
      <path id="Path_1" data-name="Path 1" d="M6.882,0,34.789.383a7.157,7.157,0,0,1,7.072,6.962,6.7,6.7,0,0,1-6.881,6.771L7.073,13.734A7.157,7.157,0,0,1,0,6.772,6.7,6.7,0,0,1,6.882,0Z" transform="translate(84.223 51.857) rotate(150)" fill="#fe2c25" opacity="0.998"/>
      <path id="Path_2" data-name="Path 2" d="M7.073.383,34.98,0a6.7,6.7,0,0,1,6.881,6.771,7.157,7.157,0,0,1-7.072,6.962l-27.907.382A6.7,6.7,0,0,1,0,7.345,7.157,7.157,0,0,1,7.073.383Z" transform="translate(77.165 86.41) rotate(-150)" fill="#2785fc" opacity="0.998"/>
      <path id="Path_4" data-name="Path 4" d="M7.073,13.734l27.907.382a6.7,6.7,0,0,0,6.881-6.771A7.157,7.157,0,0,0,34.789.383L6.882,0A6.7,6.7,0,0,0,0,6.772,7.157,7.157,0,0,0,7.073,13.734Z" transform="translate(86.32 74.185) rotate(-30)" fill="#ffba00" opacity="0.998"/>
      <path id="Path_3" data-name="Path 3" d="M6.882,14.116l27.907-.382a7.157,7.157,0,0,0,7.072-6.962A6.7,6.7,0,0,0,34.98,0L7.073.383A7.157,7.157,0,0,0,0,7.345,6.7,6.7,0,0,0,6.882,14.116Z" transform="translate(93.378 39.631) rotate(30)" fill="#00a050" opacity="0.998"/>
    </g>
    <path id="Path_5" data-name="Path 5" d="M9.342-4.32V-34.236h8.64a15.807,15.807,0,0,1,5.994,1,9.725,9.725,0,0,1,3.969,2.916,11.855,11.855,0,0,1,2.214,4.644,25.809,25.809,0,0,1,.675,6.183,22.013,22.013,0,0,1-.729,6.075,14.8,14.8,0,0,1-1.863,4.185,9.747,9.747,0,0,1-2.565,2.646A12.587,12.587,0,0,1,22.788-5.1a12.116,12.116,0,0,1-2.754.648,21.516,21.516,0,0,1-2.16.135ZM4.212-38.556V0h13.23a23.144,23.144,0,0,0,8.316-1.35,14.51,14.51,0,0,0,5.778-3.915,16.1,16.1,0,0,0,3.348-6.318,31.21,31.21,0,0,0,1.08-8.613q0-9.288-4.806-13.824T17.442-38.556ZM60.858-16.632H44.82a9.561,9.561,0,0,1,.7-3.051,8.138,8.138,0,0,1,1.62-2.511A7.42,7.42,0,0,1,49.6-23.9a7.992,7.992,0,0,1,3.213-.621,7.852,7.852,0,0,1,3.159.621,7.948,7.948,0,0,1,2.484,1.674,7.867,7.867,0,0,1,1.674,2.511A9.391,9.391,0,0,1,60.858-16.632Zm4.428,7.776H60.75a6.527,6.527,0,0,1-2.457,4.1A7.944,7.944,0,0,1,53.514-3.4a9.508,9.508,0,0,1-3.942-.756,7.726,7.726,0,0,1-2.754-2.025A7.889,7.889,0,0,1,45.252-9.1a11.081,11.081,0,0,1-.432-3.483h20.9a22.227,22.227,0,0,0-.459-5.346,15.476,15.476,0,0,0-2.052-5.184,12.227,12.227,0,0,0-3.942-3.915,11.453,11.453,0,0,0-6.183-1.539,12.7,12.7,0,0,0-5.265,1.08,12.374,12.374,0,0,0-4.158,3.024,13.938,13.938,0,0,0-2.727,4.59,16.8,16.8,0,0,0-.972,5.832A22.379,22.379,0,0,0,40.9-8.154,12.846,12.846,0,0,0,43.416-3.51,11.444,11.444,0,0,0,47.547-.486,14.34,14.34,0,0,0,53.352.594a12.673,12.673,0,0,0,7.884-2.376A11.156,11.156,0,0,0,65.286-8.856ZM83.052,0,93.258-27.918H88.452L80.838-4.644H80.73L72.9-27.918H67.77L78.138,0Zm33.8-16.632H100.818a9.561,9.561,0,0,1,.7-3.051,8.138,8.138,0,0,1,1.62-2.511,7.42,7.42,0,0,1,2.457-1.7,7.992,7.992,0,0,1,3.213-.621,7.852,7.852,0,0,1,3.159.621,7.948,7.948,0,0,1,2.484,1.674,7.867,7.867,0,0,1,1.674,2.511A9.391,9.391,0,0,1,116.856-16.632Zm4.428,7.776h-4.536a6.527,6.527,0,0,1-2.457,4.1,7.944,7.944,0,0,1-4.779,1.35,9.508,9.508,0,0,1-3.942-.756,7.726,7.726,0,0,1-2.754-2.025A7.889,7.889,0,0,1,101.25-9.1a11.081,11.081,0,0,1-.432-3.483h20.9a22.227,22.227,0,0,0-.459-5.346,15.476,15.476,0,0,0-2.052-5.184,12.227,12.227,0,0,0-3.942-3.915,11.453,11.453,0,0,0-6.183-1.539,12.7,12.7,0,0,0-5.265,1.08,12.374,12.374,0,0,0-4.158,3.024,13.938,13.938,0,0,0-2.727,4.59,16.8,16.8,0,0,0-.972,5.832A22.379,22.379,0,0,0,96.9-8.154,12.846,12.846,0,0,0,99.414-3.51a11.444,11.444,0,0,0,4.131,3.024A14.34,14.34,0,0,0,109.35.594a12.672,12.672,0,0,0,7.884-2.376A11.156,11.156,0,0,0,121.284-8.856Zm5.454-29.7V0h4.59V-38.556ZM141.8-13.932a13.889,13.889,0,0,1,.675-4.509,9.731,9.731,0,0,1,1.863-3.321,7.934,7.934,0,0,1,2.781-2.052,8.277,8.277,0,0,1,3.375-.7,8.277,8.277,0,0,1,3.375.7,7.934,7.934,0,0,1,2.781,2.052,9.731,9.731,0,0,1,1.863,3.321,13.889,13.889,0,0,1,.675,4.509,13.889,13.889,0,0,1-.675,4.509,9.434,9.434,0,0,1-1.863,3.294A8.084,8.084,0,0,1,153.873-4.1a8.277,8.277,0,0,1-3.375.7,8.277,8.277,0,0,1-3.375-.7,8.084,8.084,0,0,1-2.781-2.025,9.434,9.434,0,0,1-1.863-3.294A13.889,13.889,0,0,1,141.8-13.932Zm-4.86,0a18.339,18.339,0,0,0,.864,5.724A13.066,13.066,0,0,0,140.4-3.591a11.924,11.924,0,0,0,4.266,3.078A14.466,14.466,0,0,0,150.5.594a14.418,14.418,0,0,0,5.859-1.107A11.981,11.981,0,0,0,160.6-3.591a13.066,13.066,0,0,0,2.592-4.617,18.339,18.339,0,0,0,.864-5.724,18.594,18.594,0,0,0-.864-5.751,13.03,13.03,0,0,0-2.592-4.644,12.272,12.272,0,0,0-4.239-3.105,14.119,14.119,0,0,0-5.859-1.134,14.166,14.166,0,0,0-5.832,1.134,12.21,12.21,0,0,0-4.266,3.105,13.03,13.03,0,0,0-2.592,4.644A18.594,18.594,0,0,0,136.944-13.932Zm32.67-13.986V10.638h4.59V-3.726h.108a7.394,7.394,0,0,0,1.863,2.079,9.812,9.812,0,0,0,2.349,1.323,12.749,12.749,0,0,0,2.511.7,13.8,13.8,0,0,0,2.295.216A12.964,12.964,0,0,0,188.919-.54a11.2,11.2,0,0,0,4-3.105,13.222,13.222,0,0,0,2.376-4.617,19.7,19.7,0,0,0,.783-5.616,19.084,19.084,0,0,0-.81-5.616,14.191,14.191,0,0,0-2.4-4.671,11.478,11.478,0,0,0-4-3.213,12.592,12.592,0,0,0-5.643-1.188,13.3,13.3,0,0,0-5.346,1.053,6.872,6.872,0,0,0-3.564,3.375H174.2v-3.78Zm21.6,13.716a18.365,18.365,0,0,1-.432,4,10.572,10.572,0,0,1-1.4,3.456,7.38,7.38,0,0,1-2.565,2.43,7.848,7.848,0,0,1-3.969.918,8.52,8.52,0,0,1-4.05-.891,7.861,7.861,0,0,1-2.727-2.349,9.823,9.823,0,0,1-1.539-3.375,16.089,16.089,0,0,1-.486-3.969,16.189,16.189,0,0,1,.459-3.834,10.048,10.048,0,0,1,1.485-3.375,7.9,7.9,0,0,1,2.646-2.4,7.882,7.882,0,0,1,3.942-.918,8.2,8.2,0,0,1,3.861.864,7.674,7.674,0,0,1,2.7,2.322,10.275,10.275,0,0,1,1.566,3.321A14.275,14.275,0,0,1,191.214-14.2Zm29.646-2.43H204.822a9.561,9.561,0,0,1,.7-3.051,8.138,8.138,0,0,1,1.62-2.511,7.42,7.42,0,0,1,2.457-1.7,7.992,7.992,0,0,1,3.213-.621,7.852,7.852,0,0,1,3.159.621,7.948,7.948,0,0,1,2.484,1.674,7.867,7.867,0,0,1,1.674,2.511A9.391,9.391,0,0,1,220.86-16.632Zm4.428,7.776h-4.536a6.527,6.527,0,0,1-2.457,4.1,7.944,7.944,0,0,1-4.779,1.35,9.508,9.508,0,0,1-3.942-.756,7.726,7.726,0,0,1-2.754-2.025A7.889,7.889,0,0,1,205.254-9.1a11.082,11.082,0,0,1-.432-3.483h20.9a22.226,22.226,0,0,0-.459-5.346,15.476,15.476,0,0,0-2.052-5.184,12.227,12.227,0,0,0-3.942-3.915,11.453,11.453,0,0,0-6.183-1.539,12.7,12.7,0,0,0-5.265,1.08,12.374,12.374,0,0,0-4.158,3.024,13.938,13.938,0,0,0-2.727,4.59,16.8,16.8,0,0,0-.972,5.832,22.379,22.379,0,0,0,.945,5.886,12.846,12.846,0,0,0,2.511,4.644,11.444,11.444,0,0,0,4.131,3.024,14.34,14.34,0,0,0,5.8,1.08,12.673,12.673,0,0,0,7.884-2.376A11.156,11.156,0,0,0,225.288-8.856Zm5.022-19.062V0h4.59V-12.42a19.087,19.087,0,0,1,.54-4.779,9.16,9.16,0,0,1,1.728-3.537A7.406,7.406,0,0,1,240.3-22.95a12.982,12.982,0,0,1,4.7-.756v-4.86a10.316,10.316,0,0,0-6.156,1.512,12.434,12.434,0,0,0-4.1,5.022h-.108v-5.886Zm56.214.648h4.86a13.591,13.591,0,0,0-1.215-5.481,10.68,10.68,0,0,0-3.024-3.807,12.474,12.474,0,0,0-4.455-2.214,20.6,20.6,0,0,0-5.508-.7,19.778,19.778,0,0,0-5.157.675,14.179,14.179,0,0,0-4.482,2.052,10.386,10.386,0,0,0-3.159,3.51,10.216,10.216,0,0,0-1.188,5.049,8.431,8.431,0,0,0,1.053,4.4,8.537,8.537,0,0,0,2.808,2.862,16.32,16.32,0,0,0,3.969,1.782q2.214.675,4.509,1.188t4.509,1a20.558,20.558,0,0,1,3.969,1.269,7.738,7.738,0,0,1,2.808,2.025,4.838,4.838,0,0,1,1.053,3.24,6.307,6.307,0,0,1-.864,3.456,6.288,6.288,0,0,1-2.268,2.133,10.261,10.261,0,0,1-3.159,1.107A19.152,19.152,0,0,1,278.1-3.4a16.481,16.481,0,0,1-4.212-.54A10.481,10.481,0,0,1,270.3-5.616a8.592,8.592,0,0,1-2.484-2.889,8.709,8.709,0,0,1-.945-4.185h-4.86a13.558,13.558,0,0,0,1.269,6.075A11.648,11.648,0,0,0,266.733-2.4,15.136,15.136,0,0,0,271.809.054a22.607,22.607,0,0,0,6.129.81,23.44,23.44,0,0,0,5.319-.621,15.392,15.392,0,0,0,4.833-2,11.333,11.333,0,0,0,3.537-3.564A9.681,9.681,0,0,0,293-10.584a9.669,9.669,0,0,0-1.053-4.752,9.381,9.381,0,0,0-2.808-3.132,14.873,14.873,0,0,0-3.969-1.971q-2.214-.729-4.509-1.269t-4.509-1a23.612,23.612,0,0,1-3.969-1.161,7.808,7.808,0,0,1-2.808-1.809,4.019,4.019,0,0,1-1.053-2.889,6.262,6.262,0,0,1,.729-3.159A5.669,5.669,0,0,1,271-33.75a8.46,8.46,0,0,1,2.781-1.08,15.684,15.684,0,0,1,3.186-.324,10.886,10.886,0,0,1,6.561,1.863Q286.092-31.428,286.524-27.27Zm18.306-.648v-8.37h-4.59v8.37h-4.752v4.05h4.752V-6.1a10.608,10.608,0,0,0,.378,3.132,3.807,3.807,0,0,0,1.161,1.836,4.482,4.482,0,0,0,2.052.891A16.481,16.481,0,0,0,306.882,0h3.51V-4.05h-2.106a15.308,15.308,0,0,1-1.755-.081,2.267,2.267,0,0,1-1.053-.351,1.334,1.334,0,0,1-.513-.756,5.009,5.009,0,0,1-.135-1.3V-23.868h5.562v-4.05ZM338.58,0V-27.918h-4.59V-12.15a11.309,11.309,0,0,1-.513,3.483,7.911,7.911,0,0,1-1.539,2.781,6.834,6.834,0,0,1-2.565,1.836,9.355,9.355,0,0,1-3.645.648,5.619,5.619,0,0,1-4.158-1.512,5.545,5.545,0,0,1-1.512-4.1v-18.9h-4.59v18.36a17.276,17.276,0,0,0,.459,4.131,7.823,7.823,0,0,0,1.593,3.213,7.319,7.319,0,0,0,2.97,2.079,12.519,12.519,0,0,0,4.59.729,11.162,11.162,0,0,0,5.346-1.215,9.38,9.38,0,0,0,3.726-3.807h.108V0Zm10.26-13.716a18.366,18.366,0,0,1,.432-4,10.571,10.571,0,0,1,1.4-3.456,7.31,7.31,0,0,1,2.592-2.43,7.882,7.882,0,0,1,3.942-.918,8.52,8.52,0,0,1,4.05.891,7.861,7.861,0,0,1,2.727,2.349,9.822,9.822,0,0,1,1.539,3.375,16.088,16.088,0,0,1,.486,3.969,16.189,16.189,0,0,1-.459,3.834,10.048,10.048,0,0,1-1.485,3.375,7.9,7.9,0,0,1-2.646,2.4,7.882,7.882,0,0,1-3.942.918,8.2,8.2,0,0,1-3.861-.864,7.674,7.674,0,0,1-2.7-2.322,10.275,10.275,0,0,1-1.566-3.321A14.275,14.275,0,0,1,348.84-13.716ZM370.44,0V-38.556h-4.59v14.364h-.108a7.394,7.394,0,0,0-1.863-2.079,10.584,10.584,0,0,0-2.349-1.35,11.79,11.79,0,0,0-2.484-.729,13.6,13.6,0,0,0-2.322-.216,12.707,12.707,0,0,0-5.589,1.161,11.474,11.474,0,0,0-4,3.132,13.223,13.223,0,0,0-2.376,4.617,19.7,19.7,0,0,0-.783,5.616,19.084,19.084,0,0,0,.81,5.616,13.882,13.882,0,0,0,2.4,4.644,11.613,11.613,0,0,0,4,3.186A12.592,12.592,0,0,0,356.832.594a13.607,13.607,0,0,0,5.346-1.026,6.755,6.755,0,0,0,3.564-3.348h.108V0ZM396.9-16.632H380.862a9.56,9.56,0,0,1,.7-3.051,8.138,8.138,0,0,1,1.62-2.511,7.42,7.42,0,0,1,2.457-1.7,7.992,7.992,0,0,1,3.213-.621,7.852,7.852,0,0,1,3.159.621,7.948,7.948,0,0,1,2.484,1.674,7.867,7.867,0,0,1,1.674,2.511A9.391,9.391,0,0,1,396.9-16.632Zm4.428,7.776h-4.536a6.527,6.527,0,0,1-2.457,4.1,7.945,7.945,0,0,1-4.779,1.35,9.508,9.508,0,0,1-3.942-.756,7.726,7.726,0,0,1-2.754-2.025A7.889,7.889,0,0,1,381.294-9.1a11.082,11.082,0,0,1-.432-3.483h20.9a22.228,22.228,0,0,0-.459-5.346,15.476,15.476,0,0,0-2.052-5.184,12.228,12.228,0,0,0-3.942-3.915,11.453,11.453,0,0,0-6.183-1.539,12.7,12.7,0,0,0-5.265,1.08,12.374,12.374,0,0,0-4.158,3.024,13.938,13.938,0,0,0-2.727,4.59A16.8,16.8,0,0,0,376-14.04a22.378,22.378,0,0,0,.945,5.886,12.846,12.846,0,0,0,2.511,4.644,11.444,11.444,0,0,0,4.131,3.024,14.34,14.34,0,0,0,5.8,1.08,12.672,12.672,0,0,0,7.884-2.376A11.156,11.156,0,0,0,401.328-8.856Zm5.184-19.062V0h4.59V-15.768a11.309,11.309,0,0,1,.513-3.483,7.911,7.911,0,0,1,1.539-2.781,6.834,6.834,0,0,1,2.565-1.836,9.355,9.355,0,0,1,3.645-.648A5.619,5.619,0,0,1,423.522-23a5.546,5.546,0,0,1,1.512,4.1V0h4.59V-18.36a17.276,17.276,0,0,0-.459-4.131,7.823,7.823,0,0,0-1.593-3.213,7.547,7.547,0,0,0-2.97-2.106,12.115,12.115,0,0,0-4.59-.756q-6.21,0-9.072,5.076h-.108v-4.428Zm36.4,0v-8.37h-4.59v8.37h-4.752v4.05h4.752V-6.1A10.608,10.608,0,0,0,438.7-2.97a3.807,3.807,0,0,0,1.161,1.836,4.482,4.482,0,0,0,2.052.891A16.481,16.481,0,0,0,444.96,0h3.51V-4.05h-2.106a15.308,15.308,0,0,1-1.755-.081,2.267,2.267,0,0,1-1.053-.351,1.334,1.334,0,0,1-.513-.756,5.009,5.009,0,0,1-.135-1.3V-23.868h5.562v-4.05Zm53.514.972h5.13a14.346,14.346,0,0,0-1.836-5.427,13.353,13.353,0,0,0-3.51-3.915,15.386,15.386,0,0,0-4.806-2.376,19.819,19.819,0,0,0-5.724-.81,18.451,18.451,0,0,0-7.857,1.593,16.237,16.237,0,0,0-5.724,4.347,19.064,19.064,0,0,0-3.483,6.453,25.722,25.722,0,0,0-1.188,7.911,27.187,27.187,0,0,0,1.107,7.884,18.21,18.21,0,0,0,3.321,6.372,15.379,15.379,0,0,0,5.562,4.239,18.586,18.586,0,0,0,7.83,1.539q7.4,0,11.664-4.05t5.022-11.34H496.8a14.712,14.712,0,0,1-.972,4.428,10.687,10.687,0,0,1-2.241,3.537,10.207,10.207,0,0,1-3.4,2.322,11.445,11.445,0,0,1-4.509.837,12.69,12.69,0,0,1-5.94-1.3,11.6,11.6,0,0,1-4.077-3.483,14.918,14.918,0,0,1-2.349-5.13,24.984,24.984,0,0,1-.756-6.237,22.336,22.336,0,0,1,.756-5.832,15.033,15.033,0,0,1,2.349-5,11.67,11.67,0,0,1,4.05-3.483,12.526,12.526,0,0,1,5.913-1.3,11.917,11.917,0,0,1,6.993,2.052A9.538,9.538,0,0,1,496.422-26.946Zm11.394-11.61V0h4.59V-38.556ZM542.646,0V-27.918h-4.59V-12.15a11.31,11.31,0,0,1-.513,3.483A7.91,7.91,0,0,1,536-5.886a6.835,6.835,0,0,1-2.565,1.836,9.355,9.355,0,0,1-3.645.648,5.619,5.619,0,0,1-4.158-1.512,5.545,5.545,0,0,1-1.512-4.1v-18.9h-4.59v18.36a17.278,17.278,0,0,0,.459,4.131,7.824,7.824,0,0,0,1.593,3.213,7.319,7.319,0,0,0,2.97,2.079,12.519,12.519,0,0,0,4.59.729,11.162,11.162,0,0,0,5.346-1.215,9.38,9.38,0,0,0,3.726-3.807h.108V0Zm7.074-38.556V0h4.59V-3.726h.108a7.4,7.4,0,0,0,1.863,2.079A9.812,9.812,0,0,0,558.63-.324a12.748,12.748,0,0,0,2.511.7,13.8,13.8,0,0,0,2.295.216A12.964,12.964,0,0,0,569.025-.54a11.2,11.2,0,0,0,4-3.105A13.222,13.222,0,0,0,575.4-8.262a19.694,19.694,0,0,0,.783-5.616,19.085,19.085,0,0,0-.81-5.616,14.19,14.19,0,0,0-2.4-4.671,11.478,11.478,0,0,0-4-3.213,12.592,12.592,0,0,0-5.643-1.188,13.3,13.3,0,0,0-5.346,1.053,6.873,6.873,0,0,0-3.564,3.375h-.108V-38.556ZM571.32-14.2a18.364,18.364,0,0,1-.432,4,10.572,10.572,0,0,1-1.4,3.456,7.38,7.38,0,0,1-2.565,2.43,7.848,7.848,0,0,1-3.969.918,8.52,8.52,0,0,1-4.05-.891,7.862,7.862,0,0,1-2.727-2.349,9.824,9.824,0,0,1-1.539-3.375,16.09,16.09,0,0,1-.486-3.969,16.19,16.19,0,0,1,.459-3.834,10.047,10.047,0,0,1,1.485-3.375,7.9,7.9,0,0,1,2.646-2.4,7.882,7.882,0,0,1,3.942-.918,8.2,8.2,0,0,1,3.861.864,7.674,7.674,0,0,1,2.7,2.322,10.274,10.274,0,0,1,1.566,3.321A14.276,14.276,0,0,1,571.32-14.2Zm13.068,5.4H579.8a10.1,10.1,0,0,0,1.08,4.4,8.123,8.123,0,0,0,2.592,2.916A10.863,10.863,0,0,0,587.2.108a19.639,19.639,0,0,0,4.428.486,22.682,22.682,0,0,0,4.239-.4A11.511,11.511,0,0,0,599.7-1.242a8.231,8.231,0,0,0,2.754-2.7A7.777,7.777,0,0,0,603.5-8.154a6.582,6.582,0,0,0-.783-3.348,6.99,6.99,0,0,0-2.052-2.241,11.005,11.005,0,0,0-2.916-1.431,34.469,34.469,0,0,0-3.375-.918q-1.62-.378-3.24-.729a18.689,18.689,0,0,1-2.916-.864,6.681,6.681,0,0,1-2.133-1.3,2.584,2.584,0,0,1-.837-1.971,2.723,2.723,0,0,1,.54-1.755,3.861,3.861,0,0,1,1.4-1.08,7,7,0,0,1,1.917-.567,13.657,13.657,0,0,1,2.079-.162,10.421,10.421,0,0,1,2.241.243,6.87,6.87,0,0,1,2.025.783,4.6,4.6,0,0,1,1.512,1.431,4.646,4.646,0,0,1,.7,2.241h4.59a10.253,10.253,0,0,0-1.08-4.239,7.266,7.266,0,0,0-2.457-2.7,10.12,10.12,0,0,0-3.537-1.4,22.044,22.044,0,0,0-4.374-.405,15.417,15.417,0,0,0-3.7.459,11.157,11.157,0,0,0-3.348,1.4,7.727,7.727,0,0,0-2.43,2.457,6.689,6.689,0,0,0-.945,3.618,6.1,6.1,0,0,0,1.35,4.212,9.112,9.112,0,0,0,3.375,2.349,22.836,22.836,0,0,0,4.4,1.3q2.376.459,4.4,1.026a11.487,11.487,0,0,1,3.375,1.485,3.056,3.056,0,0,1,1.35,2.7A3.382,3.382,0,0,1,598-5.427a4.107,4.107,0,0,1-1.647,1.269,8.314,8.314,0,0,1-2.187.594,16.806,16.806,0,0,1-2.268.162,13.6,13.6,0,0,1-2.727-.27,7.651,7.651,0,0,1-2.376-.891,4.885,4.885,0,0,1-1.7-1.674A5.167,5.167,0,0,1,584.388-8.8Zm35.478-29.754h7.02l9.666,30.51h.108l9.882-30.51H653.4L640.224,0h-7.506Zm37.368,0h6.75V0h-6.75Zm11.34,0h31.212v5.832H687.528V0h-6.75V-32.724h-12.2Z" transform="translate(132 70)" fill="#707070"/>
  </g>
</svg>
