<svg xmlns="http://www.w3.org/2000/svg" xmlns:xlink="http://www.w3.org/1999/xlink" width="400" height="400" viewBox="0 0 400 400"><defs><filter id="a" x="-5" y="-5" width="410" height="410" filterUnits="userSpaceOnUse"><feOffset input="SourceAlpha"/><feGaussianBlur stdDeviation="5" result="b"/><feFlood flood-opacity="0.224"/><feComposite operator="in" in2="b"/><feComposite in="SourceGraphic"/></filter><clipPath id="d"><rect width="400" height="400"/></clipPath></defs><g id="c" clip-path="url(#d)"><g transform="translate(10.198 10.198)"><g transform="matrix(1, 0, 0, 1, -10.2, -10.2)" filter="url(#a)"><circle cx="190" cy="190" r="190" transform="translate(10 10)" fill="#34ad6d"/></g><line x2="62.345" transform="translate(102.559 145.943)" fill="none" stroke="#34ad6d" stroke-width="3"/></g><g transform="translate(-122.323 -93.103)"><path d="M142.133,104.428l-112.2-.084c-13.678-.24-22.178-11-26.122-19.829A35.82,35.82,0,0,1,46.944,34.408a46.859,46.859,0,0,1,92.034,12.444q0,.917-.035,1.825a27.924,27.924,0,0,1,31.62,27.656q0,.275-.005.549l.074,0a10.893,10.893,0,0,1-.141,1.475,27.844,27.844,0,0,1-9.79,19.258,25.172,25.172,0,0,1-17.915,6.816Q142.461,104.435,142.133,104.428Z" transform="translate(258.167 251.057)" fill="#fff" opacity="0.24"/><g transform="translate(215 230)" fill="none"><path d="M142.133,104.428l-112.2-.084c-13.678-.24-22.178-11-26.122-19.829A35.82,35.82,0,0,1,46.944,34.408a46.859,46.859,0,0,1,92.034,12.444q0,.917-.035,1.825a27.924,27.924,0,0,1,31.62,27.656q0,.275-.005.549l.074,0a10.893,10.893,0,0,1-.141,1.475,27.844,27.844,0,0,1-9.79,19.258,25.172,25.172,0,0,1-17.915,6.816Q142.461,104.435,142.133,104.428Z" stroke="none"/><path d="M 142.7851104736328 101.4345169067383 C 146.1468963623047 101.4345169067383 149.2582092285156 100.8583068847656 152.0326080322266 99.721923828125 C 154.4536590576172 98.73023223876953 156.6773071289062 97.28826141357422 158.6417541503906 95.43599700927734 L 158.6990966796875 95.38192749023438 L 158.7591857910156 95.33094787597656 C 161.2666625976562 93.20397186279297 163.3002777099609 90.64930725097656 164.8035125732422 87.73797607421875 C 166.3493347167969 84.74416351318359 167.2559051513672 81.51683044433594 167.4980163574219 78.14561462402344 L 167.5062561035156 78.03080749511719 L 167.5232849121094 77.91696929931641 C 167.5288543701172 77.87969207763672 167.5341644287109 77.84333801269531 167.5392150878906 77.80796813964844 L 167.5582122802734 76.82340240478516 C 167.5613708496094 76.66009521484375 167.5629730224609 76.49497222900391 167.5629730224609 76.33261871337891 C 167.5629730224609 72.96964263916016 166.9049987792969 69.70887756347656 165.6073303222656 66.64085388183594 C 164.3533020019531 63.67597198486328 162.5574035644531 61.01263809204102 160.2695465087891 58.72475814819336 C 157.981689453125 56.4369010925293 155.3183288574219 54.64102172851562 152.3534698486328 53.38699722290039 C 149.2854461669922 52.08932876586914 146.024658203125 51.43135452270508 142.6617126464844 51.43135452270508 C 141.5498352050781 51.43135452270508 140.4318237304688 51.50518798828125 139.3388061523438 51.65080642700195 L 135.8085174560547 52.12116241455078 L 135.9448089599609 48.56228256225586 C 135.9665222167969 47.99518585205078 135.9775390625 47.41968536376953 135.9775390625 46.85175704956055 C 135.9775390625 40.93051910400391 134.8185119628906 35.18799591064453 132.5326538085938 29.78366279602051 C 130.3241424560547 24.56218719482422 127.1618041992188 19.8721866607666 123.1334915161133 15.84394931793213 C 119.1051864624023 11.81568717956543 114.4150924682617 8.653401374816895 109.1934967041016 6.444877624511719 C 103.7890396118164 4.15902042388916 98.04630279541016 2.999996662139893 92.12485504150391 2.999996662139893 C 87.18499755859375 2.999996662139893 82.33797454833984 3.814353704452515 77.71839904785156 5.420424938201904 C 73.252685546875 6.972996711730957 69.08320617675781 9.233353614807129 65.32575988769531 12.13871097564697 C 61.60547256469727 15.01535415649414 58.38578033447266 18.44830513000488 55.7561149597168 22.34223556518555 C 53.08701705932617 26.2945671081543 51.09537506103516 30.62142562866211 49.83649444580078 35.20256805419922 L 49.00232696533203 38.23821258544922 L 46.01039886474609 37.25878143310547 C 42.72542190551758 36.18342590332031 39.28925704956055 35.63816452026367 35.7973747253418 35.63816452026367 C 31.36849403381348 35.63816452026367 27.07366180419922 36.50490188598633 23.03216171264648 38.21432876586914 C 19.12704277038574 39.86609268188477 15.61923313140869 42.23133087158203 12.60620880126953 45.24437713623047 C 9.593161582946777 48.25740051269531 7.227923393249512 51.76520919799805 5.57616138458252 55.67033004760742 C 3.866732835769653 59.71183013916016 2.99999475479126 64.00666046142578 2.99999475479126 68.435546875 C 2.99999475479126 71.03709411621094 3.305066108703613 73.62568664550781 3.906756639480591 76.12942504882812 C 4.491161346435547 78.56116485595703 5.35863733291626 80.92830657958984 6.485089778900146 83.16513824462891 L 6.516375541687012 83.22725677490234 L 6.544756412506104 83.29075622558594 C 7.53680419921875 85.51126098632812 8.730257034301758 87.63137817382812 10.09197044372559 89.59225463867188 C 11.63404273986816 91.81285095214844 13.35368537902832 93.76732635498047 15.20313739776611 95.40135192871094 C 19.55161476135254 99.24333953857422 24.51550674438477 101.2425842285156 29.95700073242188 101.3438034057617 L 142.1352386474609 101.4281158447266 L 142.1634521484375 101.4281387329102 L 142.1916809082031 101.4286880493164 C 142.3893585205078 101.4325714111328 142.5890197753906 101.4345169067383 142.7851104736328 101.4345169067383 M 142.7851104736328 104.4345169067383 C 142.5693206787109 104.4345169067383 142.3519439697266 104.4324035644531 142.1329650878906 104.4281158447266 L 29.92811393737793 104.3437805175781 C 16.25030326843262 104.1033782958984 7.749923229217529 93.34273529052734 3.805685043334961 84.51449584960938 C 1.370947003364563 79.67983245849609 -5.333310127753066e-06 74.21792602539062 -5.333310127753066e-06 68.435546875 C -5.333310127753066e-06 48.66540145874023 16.0272331237793 32.63816452026367 35.7973747253418 32.63816452026367 C 39.68889999389648 32.63816452026367 43.43599319458008 33.25937652587891 46.94373321533203 34.40766143798828 C 52.39444732666016 14.57192516326904 70.55785369873047 -3.451392785791541e-06 92.12485504150391 -3.451392785791541e-06 C 118.0011367797852 -3.451392785791541e-06 138.9775390625 20.97640037536621 138.9775390625 46.85175704956055 C 138.9775390625 47.46297454833984 138.9658050537109 48.07156753540039 138.9426116943359 48.67709350585938 C 140.1594543457031 48.51497268676758 141.4005432128906 48.43135452270508 142.6617126464844 48.43135452270508 C 158.0711212158203 48.43135452270508 170.5629730224609 60.92318725585938 170.5629730224609 76.33261871337891 C 170.5629730224609 76.51599884033203 170.5611877441406 76.69876098632812 170.5576629638672 76.88130950927734 C 170.6065368652344 76.88378143310547 170.6311798095703 76.88504791259766 170.6311798095703 76.88504791259766 C 170.6311798095703 77.20223236083984 170.5879669189453 77.70721435546875 170.4903106689453 78.36051940917969 C 169.9367065429688 86.06854248046875 166.2509765625 92.90992736816406 160.6998291015625 97.61873626708984 C 156.538330078125 101.5425415039062 150.7526092529297 104.4345169067383 142.7851104736328 104.4345169067383 Z" stroke="none" fill="#fff"/></g></g></g></svg>