<svg xmlns="http://www.w3.org/2000/svg" xmlns:xlink="http://www.w3.org/1999/xlink" width="400" height="400" viewBox="0 0 400 400"><defs><filter id="a" x="-5" y="-5" width="410" height="410" filterUnits="userSpaceOnUse"><feOffset input="SourceAlpha"/><feGaussianBlur stdDeviation="5" result="b"/><feFlood flood-opacity="0.224"/><feComposite operator="in" in2="b"/><feComposite in="SourceGraphic"/></filter><clipPath id="d"><rect width="400" height="400"/></clipPath></defs><g id="c" clip-path="url(#d)"><g transform="translate(10.256 10.256)"><g transform="matrix(1, 0, 0, 1, -10.26, -10.26)" filter="url(#a)"><circle cx="190" cy="190" r="190" transform="translate(10 10)" fill="#4d95fb"/></g></g><path d="M3.146,0H71.214V-22.022h-33.6L54.2-38.753c9.152-9.152,15.587-19.448,15.587-31.46,0-20.163-16.016-31.889-33.891-31.889C22.022-102.1,8.58-95.1,2.145-80.223l19.305,11.3c2.717-6.292,7.722-10.868,14.729-10.868C42.9-79.794,46.9-75.5,46.9-69.212c0,5.863-4.29,11.726-10.153,17.732L3.146-16.588Z" transform="translate(163 249)" fill="#fff" stroke="#fff" stroke-width="4"/></g></svg>