<svg xmlns="http://www.w3.org/2000/svg" xmlns:xlink="http://www.w3.org/1999/xlink" width="400" height="400" viewBox="0 0 400 400"><defs><clipPath id="b"><rect width="400" height="400"/></clipPath></defs><g id="a" clip-path="url(#b)"><g transform="translate(9.927 9.927)"><g transform="translate(0.073 0.073)" fill="#fff" stroke="#fe524d" stroke-width="3"><circle cx="190" cy="190" r="190" stroke="none"/><circle cx="190" cy="190" r="191.5" fill="none"/></g><g transform="translate(57.305 95.297)"><g transform="translate(0 0)"><path d="M131.313,42.66H112a19.311,19.311,0,0,1-38.623,0H54.07L0,73.558l15.45,42.484,23.173-7.725v88.832H146.764V108.317l23.173,7.725,15.445-42.484Zm33.927,63.677L149.2,100.99,139.036,97.6v91.822H46.345V97.6l-10.166,3.392L20.14,106.337,9.484,77.034,56.121,50.385H66.777a27.04,27.04,0,0,0,51.824,0H129.26L175.9,77.034Z" transform="translate(0 -42.66)" fill="#fe524d" stroke="#fff" stroke-width="5"/></g><g transform="translate(81.104 34.759)"><g transform="translate(0 0)"><path d="M131.313,42.66H112a19.311,19.311,0,0,1-38.623,0H54.07L0,73.558l15.45,42.484,23.173-7.725v88.832H146.764V108.317l23.173,7.725,15.445-42.484ZM56.121,50.385Z" transform="translate(0 -42.66)" fill="#fe524d"/></g></g></g></g></g></svg>