<svg xmlns="http://www.w3.org/2000/svg" xmlns:xlink="http://www.w3.org/1999/xlink" width="400" height="400" viewBox="0 0 400 400"><defs><clipPath id="b"><rect width="400" height="400"/></clipPath></defs><g id="a" clip-path="url(#b)"><g transform="translate(10.256 10.256)"><g transform="translate(-0.256 -0.256)" fill="#fff" stroke="#4d95fb" stroke-width="3"><circle cx="190" cy="190" r="190" stroke="none"/><circle cx="190" cy="190" r="191.5" fill="none"/></g><path d="M148.391,128.15a41.682,41.682,0,0,0-10.3-17.059L37.838,10.834a3.775,3.775,0,0,0-5.337,0l-.56.56L24.018,3.37a11.323,11.323,0,0,0-16.12,0L3.25,8.082A11.353,11.353,0,0,0,3.3,24.041l7.967,7.967-2.931,2.9a18.873,18.873,0,0,0-.077,26.762l30.206,30.2a3.774,3.774,0,1,0,5.337-5.337L13.6,56.33a11.318,11.318,0,0,1-.251-15.749L58.535,85.764l8.251,8.253,5.34,5.337,38.853,38.853a41.676,41.676,0,0,0,17.059,10.3l22.655,7.025a3.774,3.774,0,0,0,4.722-4.724ZM8.624,13.383l4.647-4.712a3.777,3.777,0,0,1,5.375,0l7.957,8.06L16.639,26.7l-8-7.995A3.784,3.784,0,0,1,8.624,13.383Zm10.106,21.9L35.169,18.841,75.223,58.9,58.782,75.336ZM64.121,80.673,80.56,64.232l8.007,8.007L72.126,88.68ZM77.464,94.016,93.905,77.576l38.851,38.853q.588.59,1.146,1.21l-16.376,16.376c-.411-.373-.817-.755-1.207-1.145Zm52.809,47.277a33.959,33.959,0,0,1-6.538-2.813l14.632-14.632a33.924,33.924,0,0,1,2.814,6.538l4.9,15.808Zm0,0" transform="matrix(0.966, -0.259, 0.259, 0.966, 90.115, 168.95)" fill="#4d95fb" stroke="#fff" stroke-linejoin="round" stroke-width="5"/><path d="M148.391,128.15a41.682,41.682,0,0,0-10.3-17.059L37.838,10.834a3.775,3.775,0,0,0-5.337,0l-.56.56L24.018,3.37a11.323,11.323,0,0,0-16.12,0L3.25,8.082A11.353,11.353,0,0,0,3.3,24.041l7.967,7.967-2.931,2.9a18.873,18.873,0,0,0-.077,26.762l30.206,30.2a3.774,3.774,0,1,0,5.337-5.337L13.6,56.33a11.318,11.318,0,0,1-.251-15.749L58.535,85.764l8.251,8.253,5.34,5.337,38.853,38.853a41.676,41.676,0,0,0,17.059,10.3l22.655,7.025a3.774,3.774,0,0,0,4.722-4.724ZM18.73,35.282,35.169,18.841Zm61.83,28.95,8.007,8.007Z" transform="matrix(0.966, -0.259, 0.259, 0.966, 98.997, 101.298)" fill="#4d95fb"/></g></g></svg>