<svg xmlns="http://www.w3.org/2000/svg" xmlns:xlink="http://www.w3.org/1999/xlink" width="400" height="400" viewBox="0 0 400 400"><defs><filter id="a" x="-5" y="-5" width="410" height="410" filterUnits="userSpaceOnUse"><feOffset input="SourceAlpha"/><feGaussianBlur stdDeviation="5" result="b"/><feFlood flood-opacity="0.224"/><feComposite operator="in" in2="b"/><feComposite in="SourceGraphic"/></filter><clipPath id="d"><rect width="400" height="400"/></clipPath></defs><g id="c" clip-path="url(#d)"><g transform="translate(10.198 10.198)"><g transform="matrix(1, 0, 0, 1, -10.2, -10.2)" filter="url(#a)"><circle cx="190" cy="190" r="190" transform="translate(10 10)" fill="#34ad6d"/></g><line x2="62.345" transform="translate(102.559 145.943)" fill="none" stroke="#34ad6d" stroke-width="3"/></g><path d="M53.053-59.488l17.3-22.022V-100.1H6.006v21.45H42.614L24.453-55.627l8.723,13.013h4.719c9.438,0,13.585,5.005,13.585,11.154S47.333-20.306,37.895-20.306c-8.723,0-13.013-4-15.3-10.582L2.86-19.448C9.009-4.719,22.737,2,37.895,2,57.2,2,74.36-9.438,74.36-31.46,74.36-45.331,65.351-55.2,53.053-59.488Z" transform="translate(161 249)" fill="#fff" stroke="#fff" stroke-width="4"/></g></svg>