<svg xmlns="http://www.w3.org/2000/svg" xmlns:xlink="http://www.w3.org/1999/xlink" width="1920" height="1080" viewBox="0 0 1920 1080"><defs><clipPath id="b"><rect width="1920" height="1080"/></clipPath></defs><g id="a" clip-path="url(#b)"><rect width="1920" height="1080" fill="#fff"/><g transform="translate(-31 -142)"><path d="M51.291,37.684,10.8,37.654c-4.936-.087-8-3.97-9.427-7.156A12.926,12.926,0,0,1,16.94,12.416a16.91,16.91,0,0,1,33.212,4.491q0,.331-.013.659a10.077,10.077,0,0,1,11.411,9.98q0,.1,0,.2h.027a3.931,3.931,0,0,1-.051.532,10.048,10.048,0,0,1-3.533,6.95,9.083,9.083,0,0,1-6.465,2.46Z" transform="translate(230.578 237.599)" fill="#fe524d" opacity="0.24"/><g transform="translate(215 230)" fill="none"><path d="M51.291,37.684,10.8,37.654c-4.936-.087-8-3.97-9.427-7.156A12.926,12.926,0,0,1,16.94,12.416a16.91,16.91,0,0,1,33.212,4.491q0,.331-.013.659a10.077,10.077,0,0,1,11.411,9.98q0,.1,0,.2h.027a3.931,3.931,0,0,1-.051.532,10.048,10.048,0,0,1-3.533,6.95,9.083,9.083,0,0,1-6.465,2.46Z" stroke="none"/><path d="M 51.52590179443359 36.68657684326172 C 53.82118988037109 36.68657684326172 55.76544189453125 35.95071792602539 57.30464172363281 34.49942779541016 L 57.32374954223633 34.48140716552734 L 57.34378051757812 34.46442031860352 C 59.22050094604492 32.87247848510742 60.3507194519043 30.64978790283203 60.52626037597656 28.20578765869141 L 60.52901077270508 28.16752815246582 L 60.5346794128418 28.12958908081055 C 60.53696823120117 28.11428260803223 60.53911972045898 28.09950828552246 60.54115295410156 28.08520889282227 L 60.54816818237305 27.72420883178711 C 60.54932022094727 27.66479873657227 60.54990005493164 27.60531806945801 60.54990005493164 27.54563903808594 C 60.54990005493164 22.54522895812988 56.48176956176758 18.47709846496582 51.48136138916016 18.47709846496582 C 51.07646942138672 18.47709846496582 50.66936111450195 18.50398826599121 50.27133941650391 18.55700874328613 L 49.09457015991211 18.71378898620605 L 49.14001083374023 17.52748870849609 C 49.14788818359375 17.32191848754883 49.15187835693359 17.11317825317383 49.15187835693359 16.90707778930664 C 49.15187835693359 12.65815830230713 47.49723052978516 8.663548469543457 44.49274826049805 5.659098625183105 C 41.48823928833008 2.65462851524353 37.4935302734375 0.9999984502792358 33.24446868896484 0.9999984502792358 C 29.68952941894531 0.9999984502792358 26.32794952392578 2.14633846282959 23.52314949035645 4.315078258514404 C 20.80489921569824 6.416898250579834 18.80949974060059 9.388118743896484 17.9045295715332 12.68142795562744 L 17.6264705657959 13.69330883026123 L 16.62915992736816 13.36682796478271 C 15.43542003631592 12.97605800628662 14.18679046630859 12.77791881561279 12.91796016693115 12.77791881561279 C 9.734590530395508 12.77791881561279 6.741740226745605 14.01760864257812 4.490720272064209 16.26863861083984 C 2.239690065383911 18.5196590423584 1 21.51250839233398 1 24.69586753845215 C 1 26.57883834838867 1.426100015640259 28.37967872619629 2.266469955444336 30.04837799072266 L 2.27689003944397 30.06908798217773 L 2.286350011825562 30.09025764465332 C 3.057290077209473 31.81581878662109 4.174280166625977 33.37789916992188 5.431570053100586 34.48873901367188 C 7.016079425811768 35.88868713378906 8.825531959533691 36.61710357666016 10.80961418151855 36.65384674072266 L 51.29130935668945 36.68426895141602 L 51.30073928833008 36.68427658081055 L 51.3101692199707 36.6844596862793 C 51.38261032104492 36.68587875366211 51.45452117919922 36.68657684326172 51.52590179443359 36.68657684326172 M 51.52590179443359 37.68657684326172 C 51.44802856445312 37.68657684326172 51.36959075927734 37.68581771850586 51.29056167602539 37.68426895141602 L 10.79996013641357 37.65383911132812 C 5.864140033721924 37.56707763671875 2.79665994644165 33.68396759033203 1.373329997062683 30.4981689453125 C 0.4947200417518616 28.7535285949707 5.554198878598982e-08 26.78251838684082 5.554198878598982e-08 24.69586753845215 C 5.554198878598982e-08 17.56155776977539 5.783639907836914 11.77791881561279 12.91796016693115 11.77791881561279 C 14.3222599029541 11.77791881561279 15.6744499206543 12.00208854675293 16.94026947021484 12.41645812988281 C 18.90723037719727 5.258468627929688 25.46173095703125 -1.578369165144977e-06 33.24446868896484 -1.578369165144977e-06 C 42.58227157592773 -1.578369165144977e-06 50.15187835693359 7.569608211517334 50.15187835693359 16.90707778930664 C 50.15187835693359 17.12763786315918 50.14765167236328 17.34725761413574 50.13927841186523 17.56576919555664 C 50.57838821411133 17.50726890563965 51.02624893188477 17.47709846496582 51.48136138916016 17.47709846496582 C 57.04204940795898 17.47709846496582 61.54990005493164 21.98493766784668 61.54990005493164 27.54563903808594 C 61.54990005493164 27.61180877685547 61.54925918579102 27.67776870727539 61.54798126220703 27.74363899230957 C 61.56563186645508 27.74452781677246 61.57452011108398 27.74498748779297 61.57452011108398 27.74498748779297 C 61.57452011108398 27.85944747924805 61.55892944335938 28.04167747497559 61.52368927001953 28.27742767333984 C 61.32390975952148 31.05897903442383 59.99385833740234 33.52777862548828 57.99066162109375 35.22700881958008 C 56.48891830444336 36.64297866821289 54.40108108520508 37.68657684326172 51.52590179443359 37.68657684326172 Z" stroke="none" fill="#fe524d"/></g></g><g transform="translate(1551 -97)"><path d="M51.291,37.684,10.8,37.654c-4.936-.087-8-3.97-9.427-7.156A12.926,12.926,0,0,1,16.94,12.416a16.91,16.91,0,0,1,33.212,4.491q0,.331-.013.659a10.077,10.077,0,0,1,11.411,9.98q0,.1,0,.2h.027a3.931,3.931,0,0,1-.051.532,10.048,10.048,0,0,1-3.533,6.95,9.083,9.083,0,0,1-6.465,2.46Z" transform="translate(230.578 237.599)" fill="#34ad6d" opacity="0.24"/><g transform="translate(215 230)" fill="none"><path d="M51.291,37.684,10.8,37.654c-4.936-.087-8-3.97-9.427-7.156A12.926,12.926,0,0,1,16.94,12.416a16.91,16.91,0,0,1,33.212,4.491q0,.331-.013.659a10.077,10.077,0,0,1,11.411,9.98q0,.1,0,.2h.027a3.931,3.931,0,0,1-.051.532,10.048,10.048,0,0,1-3.533,6.95,9.083,9.083,0,0,1-6.465,2.46Z" stroke="none"/><path d="M 51.52590179443359 36.68657684326172 C 53.82118988037109 36.68657684326172 55.76544189453125 35.95071792602539 57.30464172363281 34.49942779541016 L 57.32374954223633 34.48140716552734 L 57.34378051757812 34.46442031860352 C 59.22050094604492 32.87247848510742 60.3507194519043 30.64978790283203 60.52626037597656 28.20578765869141 L 60.52901077270508 28.16752815246582 L 60.5346794128418 28.12958908081055 C 60.53696823120117 28.11428260803223 60.53911972045898 28.09950828552246 60.54115295410156 28.08520889282227 L 60.54816818237305 27.72420883178711 C 60.54932022094727 27.66479873657227 60.54990005493164 27.60531806945801 60.54990005493164 27.54563903808594 C 60.54990005493164 22.54522895812988 56.48176956176758 18.47709846496582 51.48136138916016 18.47709846496582 C 51.07646942138672 18.47709846496582 50.66936111450195 18.50398826599121 50.27133941650391 18.55700874328613 L 49.09457015991211 18.71378898620605 L 49.14001083374023 17.52748870849609 C 49.14788818359375 17.32191848754883 49.15187835693359 17.11317825317383 49.15187835693359 16.90707778930664 C 49.15187835693359 12.65815830230713 47.49723052978516 8.663548469543457 44.49274826049805 5.659098625183105 C 41.48823928833008 2.65462851524353 37.4935302734375 0.9999984502792358 33.24446868896484 0.9999984502792358 C 29.68952941894531 0.9999984502792358 26.32794952392578 2.14633846282959 23.52314949035645 4.315078258514404 C 20.80489921569824 6.416898250579834 18.80949974060059 9.388118743896484 17.9045295715332 12.68142795562744 L 17.6264705657959 13.69330883026123 L 16.62915992736816 13.36682796478271 C 15.43542003631592 12.97605800628662 14.18679046630859 12.77791881561279 12.91796016693115 12.77791881561279 C 9.734590530395508 12.77791881561279 6.741740226745605 14.01760864257812 4.490720272064209 16.26863861083984 C 2.239690065383911 18.5196590423584 1 21.51250839233398 1 24.69586753845215 C 1 26.57883834838867 1.426100015640259 28.37967872619629 2.266469955444336 30.04837799072266 L 2.27689003944397 30.06908798217773 L 2.286350011825562 30.09025764465332 C 3.057290077209473 31.81581878662109 4.174280166625977 33.37789916992188 5.431570053100586 34.48873901367188 C 7.016079425811768 35.88868713378906 8.825531959533691 36.61710357666016 10.80961418151855 36.65384674072266 L 51.29130935668945 36.68426895141602 L 51.30073928833008 36.68427658081055 L 51.3101692199707 36.6844596862793 C 51.38261032104492 36.68587875366211 51.45452117919922 36.68657684326172 51.52590179443359 36.68657684326172 M 51.52590179443359 37.68657684326172 C 51.44802856445312 37.68657684326172 51.36959075927734 37.68581771850586 51.29056167602539 37.68426895141602 L 10.79996013641357 37.65383911132812 C 5.864140033721924 37.56707763671875 2.79665994644165 33.68396759033203 1.373329997062683 30.4981689453125 C 0.4947200417518616 28.7535285949707 5.554198878598982e-08 26.78251838684082 5.554198878598982e-08 24.69586753845215 C 5.554198878598982e-08 17.56155776977539 5.783639907836914 11.77791881561279 12.91796016693115 11.77791881561279 C 14.3222599029541 11.77791881561279 15.6744499206543 12.00208854675293 16.94026947021484 12.41645812988281 C 18.90723037719727 5.258468627929688 25.46173095703125 -1.578369165144977e-06 33.24446868896484 -1.578369165144977e-06 C 42.58227157592773 -1.578369165144977e-06 50.15187835693359 7.569608211517334 50.15187835693359 16.90707778930664 C 50.15187835693359 17.12763786315918 50.14765167236328 17.34725761413574 50.13927841186523 17.56576919555664 C 50.57838821411133 17.50726890563965 51.02624893188477 17.47709846496582 51.48136138916016 17.47709846496582 C 57.04204940795898 17.47709846496582 61.54990005493164 21.98493766784668 61.54990005493164 27.54563903808594 C 61.54990005493164 27.61180877685547 61.54925918579102 27.67776870727539 61.54798126220703 27.74363899230957 C 61.56563186645508 27.74452781677246 61.57452011108398 27.74498748779297 61.57452011108398 27.74498748779297 C 61.57452011108398 27.85944747924805 61.55892944335938 28.04167747497559 61.52368927001953 28.27742767333984 C 61.32390975952148 31.05897903442383 59.99385833740234 33.52777862548828 57.99066162109375 35.22700881958008 C 56.48891830444336 36.64297866821289 54.40108108520508 37.68657684326172 51.52590179443359 37.68657684326172 Z" stroke="none" fill="#34ad6d"/></g></g><g transform="translate(364 40.607)"><g transform="translate(1018 200.393)" fill="#ffc334" stroke="#ffc334" stroke-width="1" opacity="0.161"><rect width="50" height="79" rx="5" stroke="none"/><rect x="0.5" y="0.5" width="49" height="78" rx="4.5" fill="none"/></g><g transform="translate(1038 259.393)" fill="#ffc334" stroke="#ffc334" stroke-width="1"><circle cx="5.5" cy="5.5" r="5.5" stroke="none"/><circle cx="5.5" cy="5.5" r="5" fill="none"/></g></g><g transform="translate(-859 382.607)"><g transform="translate(1018 200.393)" fill="#4d95fb" stroke="#4d95fb" stroke-width="1" opacity="0.161"><rect width="50" height="79" rx="5" stroke="none"/><rect x="0.5" y="0.5" width="49" height="78" rx="4.5" fill="none"/></g><g transform="translate(1038 259.393)" fill="#4d95fb" stroke="#4d95fb" stroke-width="1"><circle cx="5.5" cy="5.5" r="5.5" stroke="none"/><circle cx="5.5" cy="5.5" r="5" fill="none"/></g></g><g transform="translate(-133.396 724.626) rotate(-60)"><g transform="translate(94.295 571.769) rotate(-30)"><path d="M88.613,0S46.992,9.2,46.992,30.09v121.5C46.992,201.039,0,210.609,0,210.609" transform="translate(0 0)" fill="none" stroke="#34ad6d" stroke-width="1" stroke-dasharray="10"/><g transform="translate(21.504 80.571)" fill="#fff" stroke="#34ad6d" stroke-width="1"><ellipse cx="27.027" cy="6.664" rx="27.027" ry="6.664" stroke="none"/><ellipse cx="27.027" cy="6.664" rx="26.527" ry="6.164" fill="none"/></g><ellipse cx="27.027" cy="6.664" rx="27.027" ry="6.664" transform="translate(21.504 60.579)" fill="#cdebdb"/><g transform="translate(21.504 101.304)" fill="#fff" stroke="#34ad6d" stroke-width="1"><ellipse cx="27.027" cy="6.664" rx="27.027" ry="6.664" stroke="none"/><ellipse cx="27.027" cy="6.664" rx="26.527" ry="6.164" fill="none"/></g><ellipse cx="27.027" cy="6.664" rx="27.027" ry="6.664" transform="translate(21.504 122.037)" fill="#cdebdb"/></g></g><g transform="matrix(0.966, -0.259, 0.259, 0.966, 1514.15, 541.146)"><g transform="translate(99.749 0) rotate(30)"><path d="M83.938,199.5S44.513,190.78,44.513,171V55.907C44.513,9.066,0,0,0,0" transform="translate(0 0)" fill="none" stroke="#fe524d" stroke-width="1" stroke-dasharray="10"/><g transform="translate(20.37 110.552)" fill="#fff" stroke="#fe524d" stroke-width="1"><ellipse cx="25.601" cy="6.313" rx="25.601" ry="6.313" stroke="none"/><ellipse cx="25.601" cy="6.313" rx="25.101" ry="5.813" fill="none"/></g><ellipse cx="25.601" cy="6.313" rx="25.601" ry="6.313" transform="translate(20.37 129.49)" fill="#ffd5d4"/><g transform="translate(20.37 90.913)" fill="#fff" stroke="#fe524d" stroke-width="1"><ellipse cx="25.601" cy="6.313" rx="25.601" ry="6.313" stroke="none"/><ellipse cx="25.601" cy="6.313" rx="25.101" ry="5.813" fill="none"/></g><ellipse cx="25.601" cy="6.313" rx="25.601" ry="6.313" transform="translate(20.37 71.274)" fill="#ffd5d4"/></g></g><g transform="translate(1675.072 1080.399)"><path d="M19,0,38,33H0Z" transform="translate(-320.072 -159.399)" fill="#e1edfe"/><g transform="translate(-336.072 -133.399) rotate(-90)" fill="none"><path d="M19,0,38,33H0Z" stroke="none"/><path d="M 19 2.004142761230469 L 1.729656219482422 32 L 36.27034378051758 32 L 19 2.004142761230469 M 19 0 L 38 33 L 0 33 L 19 0 Z" stroke="none" fill="#4d95fb"/></g></g><g transform="translate(359.255 80.167) rotate(-150)"><path d="M26,0,52,45.158H0Z" transform="translate(-314.177 -154.977)" fill="#fff5dd"/><g transform="translate(-336.072 -119.398) rotate(-90)" fill="none"><path d="M26,0,52,45.158H0Z" stroke="none"/><path d="M 26.00023460388184 2.004138946533203 L 1.729652404785156 44.15831756591797 L 50.27082824707031 44.15831756591797 L 26.00023460388184 2.004138946533203 M 26.00023460388184 -3.814697265625e-06 L 52.00048446655273 45.15831756591797 L -7.62939453125e-06 45.15831756591797 L 26.00023460388184 -3.814697265625e-06 Z" stroke="none" fill="#ffc334"/></g></g></g></svg>